<svg xmlns="http://www.w3.org/2000/svg" xmlns:xlink="http://www.w3.org/1999/xlink" width="500" zoomAndPan="magnify" viewBox="0 0 375 374.999991" height="500" preserveAspectRatio="xMidYMid meet" version="1.0"><defs><g/></defs><g fill="#292929" fill-opacity="1"><g transform="translate(11.877625, 235.741137)"><g><path d="M 35.011719 -55.867188 C 46.003906 -55.867188 53.542969 -49.667969 54.597656 -41.425781 C 55.160156 -37.269531 54.386719 -31.984375 50.792969 -28.039062 L 63.191406 -28.109375 C 66.644531 -32.195312 67.492188 -37.480469 67.136719 -42.621094 C 66.011719 -60.9375 50.722656 -68.335938 35.011719 -68.335938 C 16.132812 -68.335938 0.84375 -53.046875 0.84375 -34.167969 C 0.84375 -15.289062 16.132812 0 35.011719 0 L 66.011719 0 L 66.011719 -12.46875 L 35.011719 -12.46875 C 23.035156 -12.46875 13.246094 -22.191406 13.246094 -34.167969 C 13.246094 -46.144531 23.035156 -55.867188 35.011719 -55.867188 Z M 66.011719 -13.949219 L 66.011719 -26.417969 L 35.296875 -26.417969 C 30.925781 -26.277344 27.265625 -29.800781 27.265625 -34.167969 C 27.265625 -38.394531 30.785156 -41.917969 35.011719 -41.917969 C 43.46875 -41.917969 43.46875 -30.855469 34.378906 -30.996094 L 34.378906 -28.039062 L 49.242188 -28.039062 C 53.1875 -32.96875 53.613281 -37.269531 53.117188 -41.355469 C 52.273438 -48.820312 45.511719 -54.316406 35.011719 -54.316406 C 23.882812 -54.316406 14.792969 -45.300781 14.792969 -34.167969 C 14.792969 -23.035156 23.882812 -14.019531 35.011719 -14.019531 C 45.300781 -14.019531 55.726562 -13.949219 66.011719 -13.949219 Z M 66.011719 -13.949219 "/></g></g></g><g fill="#292929" fill-opacity="1"><g transform="translate(71.059782, 235.741137)"><g><path d="M 13.808594 -103.632812 L 1.550781 -103.632812 L 1.550781 -32.757812 C 1.550781 -14.582031 17.402344 0.140625 35.226562 0.140625 L 35.226562 -12.046875 C 23.53125 -12.046875 13.808594 -20.921875 13.808594 -32.757812 Z M 27.476562 -32.757812 L 27.476562 -103.632812 L 15.289062 -103.632812 L 15.289062 -32.757812 C 15.289062 -21.980469 24.65625 -13.667969 35.226562 -13.667969 L 35.226562 -25.996094 C 30.925781 -25.996094 27.476562 -28.8125 27.476562 -32.757812 Z M 27.476562 -32.757812 "/></g></g></g><g fill="#292929" fill-opacity="1"><g transform="translate(97.625021, 235.741137)"><g><path d="M 14.652344 -33.816406 C 14.652344 -45.863281 24.304688 -55.65625 36.492188 -55.65625 C 48.539062 -55.65625 58.191406 -45.863281 58.191406 -33.816406 C 58.191406 -25.152344 62.628906 -17.542969 70.800781 -14.300781 L 70.800781 -33.816406 C 70.800781 -52.90625 55.445312 -68.265625 36.492188 -68.265625 C 17.402344 -68.265625 2.042969 -52.90625 2.042969 -33.816406 C 2.042969 -14.582031 18.175781 0.492188 36.492188 0.492188 C 43.539062 0.492188 49.667969 -1.550781 55.230469 -4.929688 C 51.921875 -7.75 48.960938 -10.917969 46.917969 -14.441406 C 43.539062 -12.679688 40.15625 -11.835938 36.492188 -11.835938 C 24.585938 -11.835938 14.652344 -21.488281 14.652344 -33.816406 Z M 28.742188 -33.816406 C 28.742188 -29.449219 32.265625 -25.925781 36.492188 -25.925781 C 38.675781 -25.925781 40.859375 -26.769531 42.058594 -28.53125 C 42.621094 -24.304688 43.960938 -19.867188 46.003906 -15.921875 C 43.257812 -14.441406 40.015625 -13.597656 36.492188 -13.597656 C 25.503906 -13.597656 16.132812 -22.402344 16.132812 -33.816406 C 16.132812 -44.945312 25.078125 -54.035156 36.492188 -54.035156 C 47.765625 -54.035156 56.710938 -44.945312 56.710938 -33.816406 C 56.710938 -24.445312 61.714844 -15.921875 70.800781 -12.679688 L 70.800781 0.492188 C 55.445312 -3.03125 43.820312 -17.542969 44.101562 -33.535156 C 44.382812 -37.902344 40.859375 -41.566406 36.492188 -41.566406 C 32.265625 -41.566406 28.742188 -37.902344 28.742188 -33.816406 Z M 28.742188 -33.816406 "/></g></g></g><g fill="#292929" fill-opacity="1"><g transform="translate(161.738461, 235.741137)"><g><path d="M 35.648438 -56.429688 C 47.414062 -56.289062 57.132812 -46.707031 57.132812 -34.941406 L 57.132812 0 L 69.390625 0 L 69.390625 -34.589844 C 69.390625 -53.472656 54.386719 -68.617188 35.648438 -68.617188 C 28.179688 -68.617188 20.78125 -66.152344 14.863281 -61.574219 C 11.203125 -64.671875 6.621094 -66.855469 1.761719 -67.914062 L 1.761719 -55.089844 C 8.101562 -52.554688 13.105469 -47.269531 14.722656 -40.648438 C 17.683594 -50.511719 25.785156 -56.429688 35.648438 -56.429688 Z M 35.648438 -42.550781 C 31.210938 -42.550781 27.96875 -39.027344 27.96875 -34.730469 L 27.96875 0 L 15.640625 0 L 15.640625 -34.730469 C 15.640625 -45.652344 24.726562 -54.808594 35.648438 -54.808594 C 46.566406 -54.808594 55.515625 -45.792969 55.515625 -34.730469 L 55.515625 0 L 43.328125 0 L 43.328125 -34.730469 C 43.328125 -38.886719 39.804688 -42.550781 35.648438 -42.550781 Z M 1.761719 0 L 1.761719 -53.472656 C 9.300781 -50.230469 14.160156 -42.832031 14.160156 -34.730469 L 14.160156 0 Z M 1.761719 0 "/></g></g></g><g fill="#292929" fill-opacity="1"><g transform="translate(224.020281, 235.741137)"><g><path d="M 42.480469 -6.410156 L 42.480469 -13.03125 C 40.71875 -12.46875 38.675781 -12.328125 36.492188 -12.328125 C 24.9375 -12.328125 14.792969 -21.910156 14.792969 -34.238281 C 14.792969 -46.074219 24.65625 -55.796875 36.492188 -55.796875 C 48.539062 -55.796875 58.261719 -46.777344 58.261719 -34.730469 L 58.261719 -5.496094 C 58.261719 6.550781 48.398438 15.710938 36.492188 15.710938 L 36.492188 28.25 C 54.597656 28.25 70.800781 13.246094 70.800781 -5.074219 L 70.800781 -35.011719 C 70.800781 -53.257812 54.597656 -68.335938 36.492188 -68.335938 C 17.613281 -68.335938 1.480469 -52.976562 1.480469 -34.238281 C 1.480469 -16.835938 14.160156 0.210938 31.914062 0.210938 C 36.492188 0.210938 42.339844 -0.492188 42.480469 -6.410156 Z M 44.242188 -33.957031 L 44.242188 -6.269531 C 44.242188 -1.691406 41 1.691406 36.492188 1.691406 L 36.492188 14.089844 C 47.34375 14.089844 56.78125 5.214844 56.78125 -5.496094 L 56.78125 -35.011719 C 56.78125 -45.652344 46.917969 -54.457031 36.492188 -54.457031 C 25.433594 -54.457031 16.132812 -45.300781 16.132812 -34.238281 C 16.132812 -23.035156 25.714844 -13.738281 36.492188 -13.738281 C 38.675781 -13.738281 40.71875 -14.230469 42.480469 -14.652344 L 42.480469 -29.238281 C 41.210938 -27.617188 38.957031 -26.628906 36.492188 -26.628906 C 32.195312 -26.628906 28.8125 -29.871094 28.8125 -34.449219 C 29.09375 -38.394531 31.914062 -41.777344 36.492188 -41.777344 C 41 -41.777344 44.242188 -38.394531 44.242188 -33.957031 Z M 44.242188 -33.957031 "/></g></g></g><g fill="#292929" fill-opacity="1"><g transform="translate(287.288348, 235.741137)"><g><path d="M 14.652344 -33.816406 C 14.652344 -45.863281 24.304688 -55.65625 36.492188 -55.65625 C 48.539062 -55.65625 58.191406 -45.863281 58.191406 -33.816406 C 58.191406 -25.152344 62.628906 -17.542969 70.800781 -14.300781 L 70.800781 -33.816406 C 70.800781 -52.90625 55.445312 -68.265625 36.492188 -68.265625 C 17.402344 -68.265625 2.042969 -52.90625 2.042969 -33.816406 C 2.042969 -14.582031 18.175781 0.492188 36.492188 0.492188 C 43.539062 0.492188 49.667969 -1.550781 55.230469 -4.929688 C 51.921875 -7.75 48.960938 -10.917969 46.917969 -14.441406 C 43.539062 -12.679688 40.15625 -11.835938 36.492188 -11.835938 C 24.585938 -11.835938 14.652344 -21.488281 14.652344 -33.816406 Z M 28.742188 -33.816406 C 28.742188 -29.449219 32.265625 -25.925781 36.492188 -25.925781 C 38.675781 -25.925781 40.859375 -26.769531 42.058594 -28.53125 C 42.621094 -24.304688 43.960938 -19.867188 46.003906 -15.921875 C 43.257812 -14.441406 40.015625 -13.597656 36.492188 -13.597656 C 25.503906 -13.597656 16.132812 -22.402344 16.132812 -33.816406 C 16.132812 -44.945312 25.078125 -54.035156 36.492188 -54.035156 C 47.765625 -54.035156 56.710938 -44.945312 56.710938 -33.816406 C 56.710938 -24.445312 61.714844 -15.921875 70.800781 -12.679688 L 70.800781 0.492188 C 55.445312 -3.03125 43.820312 -17.542969 44.101562 -33.535156 C 44.382812 -37.902344 40.859375 -41.566406 36.492188 -41.566406 C 32.265625 -41.566406 28.742188 -37.902344 28.742188 -33.816406 Z M 28.742188 -33.816406 "/></g></g></g></svg>